{"title":"Kabali - (2016) - HINDI - 1CD - CAMRip V2 -","uid":15399249,"size":731513452,"categoryP":"video","categoryS":"movies","magnet":"?xt=urn:btih:56e8ac5cf5805d234928c7510c862012df8a803e&amp;dn=Kabali+-+%282016%29+-+HINDI+-+1CD+-+CAMRip+V2+-+&amp;tr=udp%3A%2F%2Ftracker.leechers-paradise.org%3A6969&amp;tr=udp%3A%2F%2Fzer0day.ch%3A1337&amp;tr=udp%3A%2F%2Fopen.demonii.com%3A1337&amp;tr=udp%3A%2F%2Ftracker.coppersurfer.tk%3A6969&amp;tr=udp%3A%2F%2Fexodus.desync.com%3A6969","seeders":12,"leechers":2,"uploader":"makintos13","files":1,"time":1469436456,"description":"Kabali - (2016) - HINDI - 1CD - CAMRip V2 - x264 - AAC - Makintos13\r\n\r\nScreens:\r\n \nhttps://imgmak.com/TL8\r\n \nhttps://imgmak.com/TLL\r\n \nhttps://imgmak.com/TLX\r\n \nhttps://imgmak.com/TXC\r\n \nhttps://imgmak.com/TXK\r\n \nhttps://imgmak.com/TXT\r\n \nhttps://imgmak.com/TXa\r\n \nhttps://imgmak.com/TXp\r\n \nhttps://imgmak.com/TXR\r\n\r\nFile size : 698 MiB\r\nDuration : 2h 20mn\r\nOverall bit rate : 692 Kbps\r\n\r\nVideo\r\nID : 2\r\nFormat : AVC\r\nFormat/Info : Advanced Video Codec\r\nFormat profile :   \r\nFormat settings, CABAC : Yes\r\nFormat settings, ReFrames : 4 frames\r\nCodec ID : V_MPEG4/ISO/AVC\r\nDuration : 2h 20mn\r\nBit rate : 626 Kbps\r\nWidth : 640 pixels\r\nHeight : 272 pixels\r\nDisplay aspect ratio : 2.35:1\r\nFrame rate mode : Constant\r\nFrame rate : 23.976 (24000/1001) fps\r\nColor space : YUV\r\nChroma subsampling : 4:2:0\r\nBit depth : 8 bits\r\nScan type : Progressive\r\nBits/(Pixel*Frame) : 0.150\r\nStream size : 631 MiB (90%)\r\n\r\nAudio\r\nID : 1\r\nFormat : AAC\r\nFormat/Info : Advanced Audio Codec\r\nFormat profile : LC\r\nCodec ID : A_AAC\r\nDuration : 2h 20mn\r\nBit rate : 64.2 Kbps\r\nChannel(s) : 2 channels\r\nChannel positions : Front: L R\r\nSampling rate : 48.0 KHz\r\nFrame rate : 46.875 fps (1024 spf)\r\nCompression mode : Lossy\r\nDelay relative to video : 62ms\r\nStream size : 64.7 MiB (9%)\r\nTitle : Stereo\r\nDefault : Yes\r\nForced : No\r\n\r\nSource : piklusingharoy7","torrent":{"xt":"urn:btih:56e8ac5cf5805d234928c7510c862012df8a803e","amp;dn":"Kabali+-+%282016%29+-+HINDI+-+1CD+-+CAMRip+V2+-+","amp;tr":["udp%3A%2F%2Ftracker.leechers-paradise.org%3A6969","udp%3A%2F%2Fzer0day.ch%3A1337","udp%3A%2F%2Fopen.demonii.com%3A1337","udp%3A%2F%2Ftracker.coppersurfer.tk%3A6969","udp%3A%2F%2Fexodus.desync.com%3A6969"],"infoHash":"56e8ac5cf5805d234928c7510c862012df8a803e","infoHashBuffer":{"type":"Buffer","data":[86,232,172,92,245,128,93,35,73,40,199,81,12,134,32,18,223,138,128,62]},"announce":[],"urlList":[]}}